<svg width="356" height="80" viewBox="0 0 356 80" fill="none" xmlns="http://www.w3.org/2000/svg" xmlns:xlink="http://www.w3.org/1999/xlink">
<path d="M329,12L320,30L302,32.25L314.39,46.11L311,66L329,57L347,66L343.64,46.11L356,32.25L338,30L329,12ZM329,18.72L336.02,32.79L349.97,34.53L340.43,45.21L343.04,60.66L329,53.64L329,18.72Z" fill="#FFBF00"/>
<path d="M31.207,30.527L13.647,32.473C13.013,32.55 12.453,32.973 12.243,33.617C12.033,34.26 12.243,34.93 12.71,35.353C17.93,40.117 25.773,47.25 25.773,47.25C25.767,47.25 23.62,57.627 22.193,64.55C22.073,65.177 22.3,65.84 22.847,66.237C23.39,66.633 24.09,66.64 24.64,66.33C30.787,62.837 39.993,57.583 39.993,57.583L55.34,66.333C55.9,66.64 56.6,66.633 57.143,66.237C57.69,65.84 57.917,65.177 57.793,64.553L54.223,47.25L67.287,35.363C67.753,34.927 67.96,34.257 67.753,33.617C67.547,32.977 66.987,32.553 66.353,32.48C59.327,31.693 48.79,30.527 48.79,30.527L41.513,14.427C41.24,13.85 40.667,13.447 39.993,13.447C39.32,13.447 38.743,13.853 38.483,14.427L31.207,30.527Z" fill="#FFBF00"/>
<path d="M99.207,30.527L81.647,32.473C81.013,32.55 80.453,32.973 80.243,33.617C80.033,34.26 80.243,34.93 80.71,35.353C85.93,40.117 93.773,47.25 93.773,47.25C93.767,47.25 91.62,57.627 90.193,64.55C90.073,65.177 90.3,65.84 90.847,66.237C91.39,66.633 92.09,66.64 92.64,66.33C98.787,62.837 107.993,57.583 107.993,57.583L123.34,66.333C123.9,66.64 124.6,66.633 125.143,66.237C125.69,65.84 125.917,65.177 125.793,64.553L122.223,47.25L135.287,35.363C135.753,34.927 135.96,34.257 135.753,33.617C135.547,32.977 134.987,32.553 134.353,32.48C127.327,31.693 116.79,30.527 116.79,30.527L109.513,14.427C109.24,13.85 108.667,13.447 107.993,13.447C107.32,13.447 106.743,13.853 106.483,14.427L99.207,30.527Z" fill="#FFBF00"/>
<path d="M179.207,30.527L161.647,32.473C161.013,32.55 160.453,32.973 160.243,33.617C160.033,34.26 160.243,34.93 160.71,35.353C165.93,40.117 173.773,47.25 173.773,47.25C173.767,47.25 171.62,57.627 170.193,64.55C170.073,65.177 170.3,65.84 170.847,66.237C171.39,66.633 172.09,66.64 172.64,66.33C178.787,62.837 187.993,57.583 187.993,57.583L203.34,66.333C203.9,66.64 204.6,66.633 205.143,66.237C205.69,65.84 205.917,65.177 205.793,64.553L202.223,47.25L215.287,35.363C215.753,34.927 215.96,34.257 215.753,33.617C215.547,32.977 214.987,32.553 214.353,32.48C207.327,31.693 196.79,30.527 196.79,30.527L189.513,14.427C189.24,13.85 188.667,13.447 187.993,13.447C187.32,13.447 186.743,13.853 186.483,14.427L179.207,30.527Z" fill="#FFBF00"/>
<path d="M253.207,30.527L235.647,32.473C235.013,32.55 234.453,32.973 234.243,33.617C234.033,34.26 234.243,34.93 234.71,35.353C239.93,40.117 247.773,47.25 247.773,47.25C247.767,47.25 245.62,57.627 244.193,64.55C244.073,65.177 244.3,65.84 244.847,66.237C245.39,66.633 246.09,66.64 246.64,66.33C252.787,62.837 261.993,57.583 261.993,57.583L277.34,66.333C277.9,66.64 278.6,66.633 279.143,66.237C279.69,65.84 279.917,65.177 279.793,64.553L276.223,47.25L289.287,35.363C289.753,34.927 289.96,34.257 289.753,33.617C289.547,32.977 288.987,32.553 288.353,32.48C281.327,31.693 270.79,30.527 270.79,30.527L263.513,14.427C263.24,13.85 262.667,13.447 261.993,13.447C261.32,13.447 260.743,13.853 260.483,14.427L253.207,30.527Z" fill="#FFBF00"/>
</svg>
