<svg width="364" height="80" viewBox="0 0 364 80" fill="none" xmlns="http://www.w3.org/2000/svg" xmlns:xlink="http://www.w3.org/1999/xlink">
<path d="M31.207,30.527L13.647,32.473C13.013,32.55 12.453,32.973 12.243,33.617C12.033,34.26 12.243,34.93 12.71,35.353C17.93,40.117 25.773,47.25 25.773,47.25C25.767,47.25 23.62,57.627 22.193,64.55C22.073,65.177 22.3,65.84 22.847,66.237C23.39,66.633 24.09,66.64 24.64,66.33C30.787,62.837 39.993,57.583 39.993,57.583L55.34,66.333C55.9,66.64 56.6,66.633 57.143,66.237C57.69,65.84 57.917,65.177 57.793,64.553L54.223,47.25L67.287,35.363C67.753,34.927 67.96,34.257 67.753,33.617C67.547,32.977 66.987,32.553 66.353,32.48C59.327,31.693 48.79,30.527 48.79,30.527L41.513,14.427C41.24,13.85 40.667,13.447 39.993,13.447C39.32,13.447 38.743,13.853 38.483,14.427L31.207,30.527Z" fill="#FFBF00"/>
<path d="M99.207,30.527L81.647,32.473C81.013,32.55 80.453,32.973 80.243,33.617C80.033,34.26 80.243,34.93 80.71,35.353C85.93,40.117 93.773,47.25 93.773,47.25C93.767,47.25 91.62,57.627 90.193,64.55C90.073,65.177 90.3,65.84 90.847,66.237C91.39,66.633 92.09,66.64 92.64,66.33C98.787,62.837 107.993,57.583 107.993,57.583L123.34,66.333C123.9,66.64 124.6,66.633 125.143,66.237C125.69,65.84 125.917,65.177 125.793,64.553L122.223,47.25L135.287,35.363C135.753,34.927 135.96,34.257 135.753,33.617C135.547,32.977 134.987,32.553 134.353,32.48C127.327,31.693 116.79,30.527 116.79,30.527L109.513,14.427C109.24,13.85 108.667,13.447 107.993,13.447C107.32,13.447 106.743,13.853 106.483,14.427L99.207,30.527Z" fill="#FFBF00"/>
<path d="M179.207,30.527L161.647,32.473C161.013,32.55 160.453,32.973 160.243,33.617C160.033,34.26 160.243,34.93 160.71,35.353C165.93,40.117 173.773,47.25 173.773,47.25C173.767,47.25 171.62,57.627 170.193,64.55C170.073,65.177 170.3,65.84 170.847,66.237C171.39,66.633 172.09,66.64 172.64,66.33C178.787,62.837 187.993,57.583 187.993,57.583L203.34,66.333C203.9,66.64 204.6,66.633 205.143,66.237C205.69,65.84 205.917,65.177 205.793,64.553L202.223,47.25L215.287,35.363C215.753,34.927 215.96,34.257 215.753,33.617C215.547,32.977 214.987,32.553 214.353,32.48C207.327,31.693 196.79,30.527 196.79,30.527L189.513,14.427C189.24,13.85 188.667,13.447 187.993,13.447C187.32,13.447 186.743,13.853 186.483,14.427L179.207,30.527Z" fill="#FFBF00"/>
<path d="M327.045,31.08L309.485,33.027C308.852,33.103 308.292,33.527 308.082,34.17C307.872,34.813 308.082,35.483 308.548,35.907C313.768,40.67 321.612,47.803 321.612,47.803C321.605,47.803 319.458,58.18 318.032,65.103C317.911,65.73 318.138,66.393 318.685,66.79C319.228,67.187 319.928,67.193 320.478,66.883C326.625,63.39 335.832,58.137 335.832,58.137L351.178,66.887C351.738,67.193 352.438,67.187 352.982,66.79C353.528,66.393 353.755,65.73 353.632,65.107L350.062,47.803L363.125,35.917C363.592,35.48 363.798,34.81 363.592,34.17C363.385,33.53 362.825,33.107 362.192,33.033C355.165,32.247 344.628,31.08 344.628,31.08L337.352,14.98C337.078,14.403 336.505,14 335.832,14C335.158,14 334.582,14.407 334.322,14.98L327.045,31.08Z" fill="#FFBF00"/>
<path d="M247.045,31.08L229.485,33.027C228.852,33.104 228.292,33.527 228.082,34.17C227.872,34.814 228.082,35.484 228.548,35.907C233.768,40.67 241.611,47.804 241.611,47.804C241.605,47.804 239.458,58.18 238.032,65.104C237.911,65.73 238.138,66.394 238.685,66.79C239.228,67.187 239.928,67.194 240.478,66.884C246.625,63.39 255.832,58.137 255.832,58.137L271.178,66.887C271.738,67.194 272.438,67.187 272.982,66.79C273.528,66.394 273.755,65.73 273.632,65.107L270.062,47.804L283.125,35.917C283.592,35.48 283.798,34.81 283.592,34.17C283.385,33.53 282.825,33.107 282.192,33.034C275.165,32.247 264.628,31.08 264.628,31.08L257.352,14.98C257.078,14.404 256.505,14 255.832,14C255.158,14 254.582,14.407 254.322,14.98L247.045,31.08Z" fill="#FFBF00"/>
</svg>
