<svg width="98" height="96" viewBox="0 0 98 96" fill="none" xmlns="http://www.w3.org/2000/svg" xmlns:xlink="http://www.w3.org/1999/xlink">
<path d="M20.417,27.895L20.417,23.811C19.19,23.811 18.028,24.363 17.253,25.313C16.477,26.264 16.17,27.513 16.416,28.714L20.417,27.895ZM84.852,36.657L88.914,37.074L88.914,37.074L84.852,36.657ZM82.402,60.567L78.34,60.151L78.34,60.151L82.402,60.567ZM27.27,61.337L31.271,60.517L31.271,60.517L27.27,61.337ZM20.417,31.978L53.083,31.978L53.083,23.811L20.417,23.811L20.417,31.978ZM53.083,31.978L76.726,31.978L76.726,23.811L53.083,23.811L53.083,31.978ZM76.726,31.978C79.247,31.978 81.013,34.064 80.79,36.241L88.914,37.074C89.652,29.867 83.868,23.811 76.726,23.811L76.726,31.978ZM80.79,36.241L78.34,60.151L86.464,60.983L88.914,37.074L80.79,36.241ZM78.34,60.151C78.144,62.063 76.458,63.661 74.276,63.661L74.276,71.827C80.485,71.827 85.825,67.22 86.464,60.983L78.34,60.151ZM74.276,63.661L35.278,63.661L35.278,71.827L74.276,71.827L74.276,63.661ZM35.278,63.661C33.257,63.661 31.631,62.278 31.271,60.517L23.27,62.157C24.436,67.847 29.514,71.827 35.278,71.827L35.278,63.661ZM31.271,60.517L24.417,27.075L16.416,28.714L23.27,62.157L31.271,60.517Z" fill="#FFFFFF"/>
<path d="M16.461,28.908C17.021,31.093 19.245,32.41 21.43,31.85C23.615,31.291 24.932,29.066 24.372,26.881L16.461,28.908ZM17.107,14.973L21.062,13.96L21.062,13.96L17.107,14.973ZM8.167,7.871C5.911,7.871 4.083,9.7 4.083,11.955C4.083,14.21 5.911,16.038 8.167,16.038L8.167,7.871ZM24.372,26.881L21.062,13.96L13.151,15.987L16.461,28.908L24.372,26.881ZM21.062,13.96C20.13,10.32 16.822,7.871 13.145,7.871L13.145,16.038C13.16,16.038 13.169,16.04 13.174,16.042C13.18,16.044 13.183,16.046 13.183,16.047C13.184,16.047 13.179,16.043 13.171,16.032C13.163,16.02 13.155,16.004 13.151,15.987L21.062,13.96ZM13.145,7.871L8.167,7.871L8.167,16.038L13.145,16.038L13.145,7.871Z" fill="#FFFFFF"/>
<line x1="32.667" y1="79.6" x2="40.833" y2="79.6" stroke="#FFFFFF" stroke-width="4.083" stroke-miterlimit="3.999327" stroke-linecap="round" stroke-linejoin="round"/>
<line x1="65.333" y1="79.6" x2="73.5" y2="79.6" stroke="#FFFFFF" stroke-width="4.083" stroke-miterlimit="3.999327" stroke-linecap="round" stroke-linejoin="round"/>
</svg>
