<svg width="56" height="54" viewBox="0 0 56 54" fill="none" xmlns="http://www.w3.org/2000/svg" xmlns:xlink="http://www.w3.org/1999/xlink">
<path d="M19.207,16.527L1.647,18.473C1.013,18.55 0.453,18.973 0.243,19.617C0.033,20.26 0.243,20.93 0.71,21.353C5.93,26.117 13.773,33.25 13.773,33.25C13.767,33.25 11.62,43.627 10.193,50.55C10.073,51.177 10.3,51.84 10.847,52.237C11.39,52.633 12.09,52.64 12.64,52.33C18.787,48.837 27.993,43.583 27.993,43.583L43.34,52.333C43.9,52.64 44.6,52.633 45.143,52.237C45.69,51.84 45.917,51.177 45.793,50.553L42.223,33.25L55.287,21.363C55.753,20.927 55.96,20.257 55.753,19.617C55.547,18.977 54.987,18.553 54.353,18.48C47.327,17.693 36.79,16.527 36.79,16.527L29.513,0.427C29.24,-0.15 28.667,-0.553 27.993,-0.553C27.32,-0.553 26.743,-0.147 26.483,0.427L19.207,16.527Z" fill="#FFBF00"/>
</svg>
