<svg width="98" height="98" viewBox="0 0 98 98" fill="none" xmlns="http://www.w3.org/2000/svg" xmlns:xlink="http://www.w3.org/1999/xlink">
<path d="M66.5,24.5C66.5,20.439 64.656,16.544 61.374,13.672C58.092,10.801 53.641,9.188 49,9.188C44.359,9.188 39.908,10.801 36.626,13.672C33.344,16.544 31.5,20.439 31.5,24.5C31.5,28.561 33.344,32.456 36.626,35.328C39.908,38.199 44.359,39.812 49,39.812C53.641,39.812 58.092,38.199 61.374,35.328C64.656,32.456 66.5,28.561 66.5,24.5ZM21,24.5C21,18.002 23.95,11.771 29.201,7.176C34.452,2.581 41.574,0 49,0C56.426,0 63.548,2.581 68.799,7.176C74.05,11.771 77,18.002 77,24.5C77,30.998 74.05,37.229 68.799,41.824C63.548,46.419 56.426,49 49,49C41.574,49 34.452,46.419 29.201,41.824C23.95,37.229 21,30.998 21,24.5ZM10.784,88.812L87.237,88.812C85.291,76.696 73.391,67.375 59.019,67.375L39.025,67.375C24.653,67.375 12.753,76.696 10.806,88.812L10.784,88.812ZM0,92.315C0,73.462 17.456,58.188 39.003,58.188L58.997,58.188C80.544,58.188 98,73.462 98,92.315C98,95.454 95.091,98 91.503,98L6.497,98C2.909,98 0,95.454 0,92.315Z" fill="#FFFFFF"/>
</svg>
