<svg width="100" height="104" viewBox="0 0 100 104" fill="none" xmlns="http://www.w3.org/2000/svg" xmlns:xlink="http://www.w3.org/1999/xlink">
<path d="M79.931,41.285C79.931,50.451 77.073,58.917 72.258,65.786L96.544,91.086C98.941,93.582 98.941,97.636 96.544,100.132C94.146,102.628 90.252,102.628 87.854,100.132L63.569,74.832C56.97,79.864 48.837,82.819 40.032,82.819C17.991,82.819 0.132,64.229 0.132,41.285C0.132,18.342 17.991,-0.249 40.032,-0.249C62.072,-0.249 79.931,18.342 79.931,41.285ZM40.032,70.04C43.659,70.04 47.251,69.296 50.603,67.851C53.954,66.406 56.999,64.288 59.564,61.618C62.129,58.948 64.164,55.778 65.552,52.289C66.94,48.8 67.655,45.061 67.655,41.285C67.655,37.509 66.94,33.77 65.552,30.281C64.164,26.793 62.129,23.623 59.564,20.953C56.999,18.283 53.954,16.165 50.603,14.72C47.251,13.275 43.659,12.531 40.032,12.531C36.404,12.531 32.812,13.275 29.461,14.72C26.11,16.165 23.064,18.283 20.499,20.953C17.934,23.623 15.9,26.793 14.512,30.281C13.123,33.77 12.409,37.509 12.409,41.285C12.409,45.061 13.123,48.8 14.512,52.289C15.9,55.778 17.934,58.948 20.499,61.618C23.064,64.288 26.11,66.406 29.461,67.851C32.812,69.296 36.404,70.04 40.032,70.04Z" transform="rotate(-20 49.237 50.878)" fill="#FFFFFF"/>
</svg>
