<svg width="98" height="86" viewBox="0 0 98 86" fill="none" xmlns="http://www.w3.org/2000/svg" xmlns:xlink="http://www.w3.org/1999/xlink">
<path d="M46.251,1.452C47.776,-0.049 50.224,-0.049 51.749,1.452L95.849,44.834C97.392,46.352 97.412,48.834 95.895,50.377C94.376,51.92 91.894,51.941 90.351,50.423L84.933,45.093L84.933,81.667C84.933,83.471 83.471,84.933 81.667,84.933L16.333,84.933C14.529,84.933 13.067,83.471 13.067,81.667L13.067,45.093L7.649,50.423C6.106,51.941 3.624,51.92 2.105,50.377C0.587,48.834 0.608,46.352 2.151,44.834L46.251,1.452ZM49,9.745L78.4,38.666L78.4,78.4L65.333,78.4L65.333,55.533C65.333,53.729 63.871,52.267 62.067,52.267L42.467,52.267C40.663,52.267 39.2,53.729 39.2,55.533L39.2,78.4L19.6,78.4L19.6,38.666L49,9.745ZM45.733,78.4L58.8,78.4L58.8,58.8L45.733,58.8L45.733,78.4Z" clip-rule="evenodd" fill-rule="evenodd" fill="#FFFFFF"/>
</svg>
