<svg width="98" height="128" viewBox="0 0 98 128" fill="none" xmlns="http://www.w3.org/2000/svg" xmlns:xlink="http://www.w3.org/1999/xlink">
<path d="M55.048,124.8C68.141,108.75 98,69.85 98,48C98,21.5 76.052,0 49,0C21.948,0 0,21.5 0,48C0,69.85 29.859,108.75 42.952,124.8C46.091,128.625 51.909,128.625 55.048,124.8ZM49,32C53.332,32 57.486,33.686 60.549,36.686C63.613,39.687 65.333,43.757 65.333,48C65.333,52.243 63.613,56.313 60.549,59.314C57.486,62.314 53.332,64 49,64C44.668,64 40.514,62.314 37.451,59.314C34.387,56.313 32.667,52.243 32.667,48C32.667,43.757 34.387,39.687 37.451,36.686C40.514,33.686 44.668,32 49,32Z" fill="#FFFCFC"/>
</svg>
